<?xml version="1.0" encoding="utf-8" standalone="no"?>
<!DOCTYPE svg PUBLIC "-//W3C//DTD SVG 1.1//EN"
  "http://www.w3.org/Graphics/SVG/1.1/DTD/svg11.dtd">
<!-- Created with matplotlib (https://matplotlib.org/) -->
<svg height="36pt" version="1.1" viewBox="0 0 36 36" width="36pt" xmlns="http://www.w3.org/2000/svg" xmlns:xlink="http://www.w3.org/1999/xlink">
 <metadata>
  <rdf:RDF xmlns:cc="http://creativecommons.org/ns#" xmlns:dc="http://purl.org/dc/elements/1.1/" xmlns:rdf="http://www.w3.org/1999/02/22-rdf-syntax-ns#">
   <cc:Work>
    <dc:type rdf:resource="http://purl.org/dc/dcmitype/StillImage"/>
    <dc:date>2022-02-20T16:58:32.896696</dc:date>
    <dc:format>image/svg+xml</dc:format>
    <dc:creator>
     <cc:Agent>
      <dc:title>Matplotlib v3.3.4, https://matplotlib.org/</dc:title>
     </cc:Agent>
    </dc:creator>
   </cc:Work>
  </rdf:RDF>
 </metadata>
 <defs>
  <style type="text/css">*{stroke-linecap:butt;stroke-linejoin:round;}</style>
 </defs>
 <g id="figure_1">
  <g id="patch_1">
   <path d="M 0 36 
L 36 36 
L 36 0 
L 0 0 
z
" style="fill:none;"/>
  </g>
  <g id="axes_1">
   <g id="line2d_1">
    <path clip-path="url(#pbc433525ac)" d="M 30.804545 17.91 
L 30.780167 17.134252 
L 30.707126 16.361565 
L 30.585712 15.594989 
L 30.416405 14.837549 
L 30.199871 14.092235 
L 29.936966 13.361988 
L 29.628727 12.64969 
L 29.276371 11.958152 
L 28.881288 11.290104 
L 28.445037 10.64818 
L 27.969341 10.034916 
L 27.456076 9.452732 
L 26.907268 8.903924 
L 26.325084 8.390659 
L 25.71182 7.914963 
L 25.069896 7.478712 
L 24.401848 7.083629 
L 23.71031 6.731273 
L 22.998012 6.423034 
L 22.267765 6.160129 
L 21.522451 5.943595 
L 20.765011 5.774288 
L 19.998435 5.652874 
L 19.225748 5.579833 
L 18.45 5.555455 
L 17.674252 5.579833 
L 16.901565 5.652874 
L 16.134989 5.774288 
L 15.377549 5.943595 
L 14.632235 6.160129 
L 13.901988 6.423034 
L 13.18969 6.731273 
L 12.498152 7.083629 
L 11.830104 7.478712 
L 11.18818 7.914963 
L 10.574916 8.390659 
L 9.992732 8.903924 
L 9.443924 9.452732 
L 8.930659 10.034916 
L 8.454963 10.64818 
L 8.018712 11.290104 
L 7.623629 11.958152 
L 7.271273 12.64969 
L 6.963034 13.361988 
L 6.700129 14.092235 
L 6.483595 14.837549 
L 6.314288 15.594989 
L 6.192874 16.361565 
L 6.119833 17.134252 
L 6.095455 17.91 
L 6.119833 18.685748 
L 6.192874 19.458435 
L 6.314288 20.225011 
L 6.483595 20.982451 
L 6.700129 21.727765 
L 6.963034 22.458012 
L 7.271273 23.17031 
L 7.623629 23.861848 
L 8.018712 24.529896 
L 8.454963 25.17182 
L 8.930659 25.785084 
L 9.443924 26.367268 
L 9.992732 26.916076 
L 10.574916 27.429341 
L 11.18818 27.905037 
L 11.830104 28.341288 
L 12.498152 28.736371 
L 13.18969 29.088727 
L 13.901988 29.396966 
L 14.632235 29.659871 
L 15.377549 29.876405 
L 16.134989 30.045712 
L 16.901565 30.167126 
L 17.674252 30.240167 
L 18.45 30.264545 
L 19.225748 30.240167 
L 19.998435 30.167126 
L 20.765011 30.045712 
L 21.522451 29.876405 
L 22.267765 29.659871 
L 22.998012 29.396966 
L 23.71031 29.088727 
L 24.401848 28.736371 
L 25.069896 28.341288 
L 25.71182 27.905037 
L 26.325084 27.429341 
L 26.907268 26.916076 
L 27.456076 26.367268 
L 27.969341 25.785084 
L 28.445037 25.17182 
L 28.881288 24.529896 
L 29.276371 23.861848 
L 29.628727 23.17031 
L 29.936966 22.458012 
L 30.199871 21.727765 
L 30.416405 20.982451 
L 30.585712 20.225011 
L 30.707126 19.458435 
L 30.780167 18.685748 
L 30.804545 17.91 
" style="fill:none;stroke:#000000;stroke-linecap:square;stroke-width:1.5;"/>
   </g>
   <g id="line2d_2">
    <path clip-path="url(#pbc433525ac)" d="M 30.804545 17.91 
L 22.267765 6.160129 
L 8.454963 10.64818 
L 8.454963 25.17182 
L 22.267765 29.659871 
L 30.804545 17.91 
" style="fill:none;stroke:#1f77b4;stroke-linecap:square;stroke-width:1.5;"/>
   </g>
   <g id="line2d_3">
    <path clip-path="url(#pbc433525ac)" d="M 30.804545 17.91 
L 18.45 17.91 
L 22.267765 6.160129 
" style="fill:none;stroke:#000000;stroke-linecap:square;stroke-width:1.5;"/>
   </g>
  </g>
 </g>
 <defs>
  <clipPath id="pbc433525ac">
   <rect height="27.18" width="27.18" x="4.86" y="4.32"/>
  </clipPath>
 </defs>
</svg>
